<?xml version="1.0" encoding="UTF-8" standalone="no"?>
<svg
   xmlns:dc="http://purl.org/dc/elements/1.1/"
   xmlns:cc="http://creativecommons.org/ns#"
   xmlns:rdf="http://www.w3.org/1999/02/22-rdf-syntax-ns#"
   xmlns:svg="http://www.w3.org/2000/svg"
   xmlns="http://www.w3.org/2000/svg"
   xmlns:sodipodi="http://sodipodi.sourceforge.net/DTD/sodipodi-0.dtd"
   xmlns:inkscape="http://www.inkscape.org/namespaces/inkscape"
   id="Ebene_1"
   data-name="Ebene 1"
   viewBox="0 0 25783.02 13938.411"
   version="1.1"
   sodipodi:docname="thkoeln_logo.svg"
   width="515.6604"
   height="278.76822"
   inkscape:version="0.92.0 r15299"
   inkscape:export-filename="D:\git\EISSS17Vilents\wip\src\img\thkoeln_logo.png"
   inkscape:export-xdpi="300"
   inkscape:export-ydpi="300">
  <metadata
     id="metadata67">
    <rdf:RDF>
      <cc:Work
         rdf:about="">
        <dc:format>image/svg+xml</dc:format>
        <dc:type
           rdf:resource="http://purl.org/dc/dcmitype/StillImage" />
        <dc:title>Logo TH Köln RGB_22pt</dc:title>
      </cc:Work>
    </rdf:RDF>
  </metadata>
  <sodipodi:namedview
     pagecolor="#ffffff"
     bordercolor="#666666"
     borderopacity="1"
     objecttolerance="10"
     gridtolerance="10"
     guidetolerance="10"
     inkscape:pageopacity="0"
     inkscape:pageshadow="2"
     inkscape:window-width="1920"
     inkscape:window-height="1017"
     id="namedview65"
     showgrid="false"
     inkscape:zoom="1.5282508"
     inkscape:cx="91.808358"
     inkscape:cy="75.067924"
     inkscape:window-x="1912"
     inkscape:window-y="-8"
     inkscape:window-maximized="1"
     inkscape:current-layer="Ebene_1"
     fit-margin-top="0"
     fit-margin-left="0"
     fit-margin-right="0"
     fit-margin-bottom="0" />
  <defs
     id="defs4">
    <style
       id="style2">.cls-1{fill:#c60c0f;}.cls-2{fill:#ea5b0c;}.cls-3{fill:#b62584;}</style>
  </defs>
  <title
     id="title6">Logo TH Köln RGB_22pt</title>
  <path
     class="cls-1"
     d="M 855.53157,652.906 H 0 V 148.593 H 2282.9184 V 652.906 H 1431.8897 V 3487.4175 H 855.53157 Z"
     id="path8"
     inkscape:connector-curvature="0"
     style="fill:#c60c0f;stroke-width:225.13989258" />
  <path
     class="cls-1"
     d="m 2724.1927,2442.7682 a 612.3805,612.3805 0 0 0 675.4197,643.9002 1670.538,1670.538 0 0 0 607.8776,-103.5644 l 83.3017,405.2517 a 1951.9629,1951.9629 0 0 1 -772.2298,144.0896 c -733.956,0 -1154.9675,-475.0452 -1154.9675,-1213.504 0,-702.4364 396.2461,-1292.303 1094.1798,-1292.303 697.9336,0 956.8444,589.8666 956.8444,1154.9676 a 1524.197,1524.197 0 0 1 -20.2625,263.4137 H 2724.1927 Z m 936.5819,-416.5088 c 0,-272.4192 -103.5644,-594.3693 -450.2798,-594.3693 -346.7154,0 -466.0396,342.2126 -486.3021,594.3693 z"
     id="path10"
     inkscape:connector-curvature="0"
     style="fill:#c60c0f;stroke-width:225.13989258" />
  <path
     class="cls-1"
     d="m 6285.9059,3422.1268 a 1575.9792,1575.9792 0 0 1 -598.8726,108.0671 c -697.9332,0 -1154.9671,-466.0394 -1154.9671,-1229.2637 a 1195.4928,1195.4928 0 0 1 1254.029,-1272.0405 1350.8393,1350.8393 0 0 1 515.5706,99.0616 l -99.0619,450.2798 a 848.77742,848.77742 0 0 0 -393.9949,-87.8046 c -430.017,0 -675.4193,346.7154 -675.4193,792.4924 0,495.3077 288.1787,783.4868 675.4193,783.4868 a 1001.8725,1001.8725 0 0 0 412.0057,-83.3017 z"
     id="path12"
     inkscape:connector-curvature="0"
     style="fill:#c60c0f;stroke-width:225.13989258" />
  <path
     class="cls-1"
     d="m 6691.1573,0 h 585.3639 v 1386.8621 0 a 772.22982,772.22982 0 0 1 664.1628,-355.721 c 400.7489,0 767.7274,281.4249 767.7274,1010.8781 v 1452.1523 h -585.364 V 2084.7958 c 0,-321.9501 -103.5645,-578.6095 -412.0062,-578.6095 a 450.27976,450.27976 0 0 0 -421.0113,326.4528 562.84974,562.84974 0 0 0 -24.7656,182.3633 V 3487.4175 H 6679.9004 V 0 Z"
     id="path14"
     inkscape:connector-curvature="0"
     style="fill:#c60c0f;stroke-width:225.13989258" />
  <path
     class="cls-1"
     d="m 9316.2887,1783.1083 c 0,-276.922 0,-495.3077 -20.2626,-709.1906 h 511.0677 l 29.2681,337.7099 v 0 a 817.25781,817.25781 0 0 1 713.6941,-387.2407 c 412.005,0 783.486,281.4249 783.486,986.1127 v 1476.9179 h -571.855 V 2075.7902 c 0,-317.4472 -103.564,-569.6039 -405.252,-569.6039 a 450.27976,450.27976 0 0 0 -421.0116,337.7098 625.8889,625.8889 0 0 0 -29.2682,202.6259 V 3487.4175 H 9320.7913 V 1783.1083 Z"
     id="path16"
     inkscape:connector-curvature="0"
     style="fill:#c60c0f;stroke-width:225.13989258" />
  <path
     class="cls-1"
     d="m 12911.773,3536.9482 c -628.141,0 -1105.437,-450.2798 -1105.437,-1242.7723 0,-792.4924 495.307,-1267.5376 1125.699,-1267.5376 630.392,0 1094.18,486.3022 1094.18,1238.2694 0,900.5595 -589.866,1272.0405 -1125.699,1272.0405 v 0 z m 15.759,-430.0173 c 321.951,0 511.068,-380.4865 511.068,-826.2634 0,-371.4808 -132.832,-821.7606 -511.068,-821.7606 -378.235,0 -520.073,450.2798 -520.073,826.2635 0,450.2797 182.364,821.7605 515.57,821.7605 v 0 z"
     id="path18"
     inkscape:connector-curvature="0"
     style="fill:#c60c0f;stroke-width:225.13989258" />
  <path
     class="cls-1"
     d="m 14508.015,0 h 585.363 v 3487.4175 h -585.363 z"
     id="path20"
     inkscape:connector-curvature="0"
     style="fill:#c60c0f;stroke-width:225.13989258" />
  <path
     class="cls-1"
     d="m 16682.866,3536.9482 c -628.141,0 -1105.437,-450.2798 -1105.437,-1242.7723 0,-792.4924 495.308,-1267.5376 1125.699,-1267.5376 630.392,0 1094.181,486.3022 1094.181,1238.2694 0,900.5595 -589.867,1272.0405 -1125.7,1272.0405 v 0 z m 15.76,-430.0173 c 321.95,0 511.067,-380.4865 511.067,-826.2634 0,-371.4808 -132.832,-821.7606 -511.067,-821.7606 -378.235,0 -520.074,450.2798 -520.074,826.2635 0,450.2797 182.364,821.7605 515.571,821.7605 v 0 z"
     id="path22"
     inkscape:connector-curvature="0"
     style="fill:#c60c0f;stroke-width:225.13989258" />
  <path
     class="cls-1"
     d="m 20294.11,3151.9588 c 0,524.576 -99.062,851.0288 -330.956,1069.4144 a 1269.789,1269.789 0 0 1 -871.291,281.4249 1602.996,1602.996 0 0 1 -758.722,-168.855 l 123.827,-450.2795 a 1256.2806,1256.2806 0 0 0 634.895,168.8548 c 371.481,0 623.637,-207.1286 623.637,-709.1906 v -191.369 0 a 702.43646,702.43646 0 0 1 -623.637,326.4529 c -565.101,0 -936.582,-511.0675 -936.582,-1179.7329 0,-808.2523 475.045,-1267.5377 999.621,-1267.5377 a 675.41962,675.41962 0 0 1 612.38,346.7154 v 0 l 24.765,-301.6874 h 511.069 c 0,173.3577 -20.263,380.4864 -20.263,713.6935 v 1362.0962 z m -585.364,-1143.7106 a 610.12907,610.12907 0 0 0 -20.263,-168.8549 450.27976,450.27976 0 0 0 -432.268,-355.721 c -312.945,0 -524.576,306.1903 -524.576,787.9896 0,450.2798 193.62,751.9674 520.073,751.9674 a 450.27976,450.27976 0 0 0 427.766,-321.9503 763.22419,763.22419 0 0 0 29.268,-225.1397 v -466.0397 z"
     id="path24"
     inkscape:connector-curvature="0"
     style="fill:#c60c0f;stroke-width:225.13989258" />
  <path
     class="cls-1"
     d="m 21273.468,1076.1691 387.241,1296.8058 c 45.028,153.095 90.056,326.4529 119.324,450.2798 h 13.508 c 33.771,-132.8326 74.296,-306.1904 114.822,-450.2798 l 337.709,-1296.8058 h 610.129 l -560.598,1670.5381 c -267.916,787.9895 -475.045,1222.5095 -751.967,1497.1804 a 1186.4872,1186.4872 0 0 1 -598.872,326.4524 l -148.593,-495.3074 a 961.34735,961.34735 0 0 0 346.716,-189.1176 1069.4145,1069.4145 0 0 0 297.185,-371.481 225.13989,225.13989 0 0 0 33.77,-108.0671 292.68187,292.68187 0 0 0 -24.765,-108.067 l -812.755,-2219.8795 h 639.398 z"
     id="path26"
     inkscape:connector-curvature="0"
     style="fill:#c60c0f;stroke-width:225.13989258" />
  <path
     class="cls-2"
     d="m 896.05676,7519.6727 -252.1567,920.8225 H 49.530776 L 1024.3865,5101.6702 h 731.7046 l 965.8502,3338.825 H 2105.058 l -263.4137,-920.8225 z m 857.78304,-450.2796 -225.1399,-808.2524 c -54.0336,-213.8828 -108.0672,-450.28 -153.0952,-675.4197 v 0 c -45.0279,207.1289 -99.0615,466.0395 -148.5923,675.4197 l -225.1399,808.2524 h 754.2186 z"
     id="path28"
     inkscape:connector-curvature="0"
     style="fill:#ea5b0c;stroke-width:225.13989258" />
  <path
     class="cls-2"
     d="m 3106.9304,6776.7114 c 0,-292.6822 0,-535.8337 -20.2625,-747.4648 h 504.3135 l 24.7653,430.017 h 20.2625 a 675.41962,675.41962 0 0 1 603.375,-479.5477 927.57631,927.57631 0 0 1 132.8325,0 v 565.1014 a 688.92806,688.92806 0 0 0 -157.5981,-15.7604 517.82174,517.82174 0 0 0 -511.0673,450.28 1154.9676,1154.9676 0 0 0 -15.7598,198.1233 v 1258.532 h -580.8611 z"
     id="path30"
     inkscape:connector-curvature="0"
     style="fill:#ea5b0c;stroke-width:225.13989258" />
  <path
     class="cls-2"
     d="m 5538.4415,5403.3576 v 614.6321 h 544.8384 v 430.0174 h -544.8384 v 1125.6993 c 0,292.6818 90.0559,421.0114 292.6818,421.0114 a 675.41962,675.41962 0 0 0 202.6259,-15.7595 l 15.76,450.28 A 1407.1243,1407.1243 0 0 1 5633,8483.2711 650.65426,650.65426 0 0 1 5142.1949,8300.9082 923.07355,923.07355 0 0 1 4953.0776,7625.4885 V 6459.2636 h -317.4469 v -430.017 h 326.4525 v -450.2795 z"
     id="path32"
     inkscape:connector-curvature="0"
     style="fill:#ea5b0c;stroke-width:225.13989258" />
  <path
     class="cls-2"
     d="m 6468.2692,7900.1594 a 1202.247,1202.247 0 0 0 553.8441,157.5973 c 243.151,0 362.475,-108.067 362.475,-272.4187 0,-164.3521 -90.0558,-247.6545 -366.9781,-362.4755 -436.7708,-177.8603 -610.1286,-425.5144 -610.1286,-702.4362 0,-421.0118 337.7094,-742.9617 862.2853,-742.9617 a 1238.2694,1238.2694 0 0 1 585.3639,139.5865 l -119.324,412.0058 a 920.82216,920.82216 0 0 0 -450.28,-128.3296 267.91648,267.91648 0 0 0 -317.4473,252.1566 c 0,148.5926 99.0619,225.1402 380.4867,342.2129 405.2514,168.8547 598.8722,396.2463 598.8722,733.9561 0,450.2796 -342.2129,751.9669 -925.3251,751.9669 a 1350.8393,1350.8393 0 0 1 -664.1629,-157.5973 z"
     id="path34"
     inkscape:connector-curvature="0"
     style="fill:#ea5b0c;stroke-width:225.13989258" />
  <path
     class="cls-3"
     d="m 9356.8142,7805.6005 a 1479.1691,1479.1691 0 0 0 718.1958,189.1173 c 371.481,0 578.61,-182.3634 578.61,-450.2795 0,-267.9166 -168.855,-405.2519 -549.342,-569.604 -495.3076,-207.129 -817.2575,-515.5707 -817.2575,-961.3472 0,-535.8328 421.0118,-950.0902 1125.6995,-950.0902 a 1591.739,1591.739 0 0 1 709.19,148.5917 l -135.084,479.5481 a 1274.2918,1274.2918 0 0 0 -594.369,-144.0891 c -362.475,0 -520.073,202.6255 -520.073,400.7488 0,256.6593 177.861,375.9837 594.369,560.5984 529.079,238.648 776.734,540.3353 776.734,981.6102 0,553.844 -412.007,995.1179 -1197.745,995.1179 a 1776.3537,1776.3537 0 0 1 -808.2522,-189.1177 z"
     id="path36"
     inkscape:connector-curvature="0"
     style="fill:#b62584;stroke-width:225.13989258" />
  <path
     class="cls-3"
     d="m 13373.31,8375.2045 a 1575.9792,1575.9792 0 0 1 -598.872,108.0666 c -697.934,0 -1154.968,-466.039 -1154.968,-1229.2633 a 1195.4928,1195.4928 0 0 1 1254.029,-1272.0406 1350.8393,1350.8393 0 0 1 515.57,99.0619 l -99.061,450.2795 a 848.77742,848.77742 0 0 0 -400.749,-83.3015 c -430.018,0 -675.42,346.7151 -675.42,792.492 0,495.3082 288.179,783.4873 675.42,783.4873 a 999.6211,999.6211 0 0 0 412.005,-83.3019 z"
     id="path38"
     inkscape:connector-curvature="0"
     style="fill:#b62584;stroke-width:225.13989258" />
  <path
     class="cls-3"
     d="m 14066.74,5687.0342 a 308.44165,308.44165 0 0 1 -317.447,-321.95 312.94444,312.94444 0 0 1 326.453,-321.9503 306.19025,306.19025 0 0 1 321.95,321.9503 310.69304,310.69304 0 0 1 -326.453,321.95 v 0 z m -288.178,2753.461 V 6029.2466 h 585.363 v 2411.2486 z"
     id="path40"
     inkscape:connector-curvature="0"
     style="fill:#b62584;stroke-width:225.13989258" />
  <path
     class="cls-3"
     d="m 15404.071,7395.8461 a 612.3805,612.3805 0 0 0 675.42,643.8998 1672.7894,1672.7894 0 0 0 598.872,-103.5645 l 83.302,405.2519 a 1947.4601,1947.4601 0 0 1 -772.23,144.0896 c -733.956,0 -1154.968,-475.0451 -1154.968,-1213.5038 0,-702.4367 396.246,-1292.3032 1094.18,-1292.3032 697.934,0 956.845,589.8665 956.845,1154.9679 a 1524.197,1524.197 0 0 1 -20.263,263.4131 h -1461.158 z m 936.582,-416.5092 c 0,-272.4192 -103.564,-594.3691 -450.28,-594.3691 -346.715,0 -470.542,337.7098 -490.804,594.3691 h 936.582 z"
     id="path42"
     inkscape:connector-curvature="0"
     style="fill:#b62584;stroke-width:225.13989258" />
  <path
     class="cls-3"
     d="m 17344.777,6736.1858 c 0,-276.9222 0,-495.3081 -20.262,-709.1905 h 511.067 l 29.269,337.7099 v 0 a 817.25781,817.25781 0 0 1 713.693,-387.2406 c 412.006,0 783.486,281.4248 783.486,986.1128 v 1476.9178 h -585.363 V 7028.8676 c 0,-317.4473 -103.565,-569.604 -405.252,-569.604 a 450.27976,450.27976 0 0 0 -405.252,337.7103 621.38609,621.38609 0 0 0 -29.268,202.6255 v 1440.8958 h -585.364 V 6736.1858 Z"
     id="path44"
     inkscape:connector-curvature="0"
     style="fill:#b62584;stroke-width:225.13989258" />
  <path
     class="cls-3"
     d="m 21590.916,8375.2045 a 1562.4708,1562.4708 0 0 1 -598.873,108.0666 c -697.933,0 -1154.967,-466.039 -1154.967,-1229.2633 a 1195.4928,1195.4928 0 0 1 1254.029,-1272.0406 1350.8393,1350.8393 0 0 1 515.57,99.0619 l -99.061,450.2795 a 851.02876,851.02876 0 0 0 -400.749,-83.3015 c -430.018,0 -675.42,346.7151 -675.42,792.492 0,495.3082 288.179,783.4873 675.42,783.4873 a 997.36972,997.36972 0 0 0 412.006,-83.3019 z"
     id="path46"
     inkscape:connector-curvature="0"
     style="fill:#b62584;stroke-width:225.13989258" />
  <path
     class="cls-3"
     d="m 22392.414,7395.8461 a 612.3805,612.3805 0 0 0 675.419,643.8998 1670.538,1670.538 0 0 0 598.873,-103.5645 l 83.3,405.2519 a 1949.7114,1949.7114 0 0 1 -772.228,144.0896 c -733.957,0 -1154.968,-475.0451 -1154.968,-1213.5038 0,-702.4367 396.246,-1292.3032 1094.18,-1292.3032 697.932,0 956.843,589.8665 956.843,1154.9679 a 1546.7111,1546.7111 0 0 1 -20.262,263.4131 h -1465.66 z m 936.58,-416.5092 c 0,-272.4192 -103.562,-594.3691 -450.279,-594.3691 -346.716,0 -470.542,337.7098 -490.804,594.3691 h 936.581 z"
     id="path48"
     inkscape:connector-curvature="0"
     style="fill:#b62584;stroke-width:225.13989258" />
  <path
     class="cls-3"
     d="m 24303.85,7900.1594 a 1202.247,1202.247 0 0 0 553.846,157.5973 c 243.149,0 362.474,-108.067 362.474,-272.4187 0,-164.3521 -90.056,-247.6545 -366.978,-362.4755 -436.77,-177.8603 -610.128,-425.5144 -610.128,-702.4362 0,-421.0118 337.709,-742.9617 862.286,-742.9617 a 1236.018,1236.018 0 0 1 585.363,139.5865 l -119.324,412.0058 a 923.07355,923.07355 0 0 0 -450.279,-128.3296 270.16788,270.16788 0 0 0 -317.448,252.1566 c 0,148.5926 99.061,225.1402 380.486,342.2129 405.252,168.8547 598.873,396.2463 598.873,733.9561 0,450.2796 -342.214,751.9669 -927.577,751.9669 a 1350.8393,1350.8393 0 0 1 -664.163,-157.5973 z"
     id="path50"
     inkscape:connector-curvature="0"
     style="fill:#b62584;stroke-width:225.13989258" />
  <path
     d="M 833.01759,11173.693 H 24.765388 v -623.637 H 2372.9744 v 623.637 H 1555.7166 V 13888.88 H 833.01759 Z"
     id="path52"
     inkscape:connector-curvature="0"
     style="stroke-width:225.13989258" />
  <path
     d="m 3624.7523,10550.056 v 1303.56 h 1073.9174 v -1303.56 h 722.6987 V 13888.88 H 4700.921 V 12493.013 H 3624.7523 v 1398.118 h -722.699 v -3341.075 z"
     id="path54"
     inkscape:connector-curvature="0"
     style="stroke-width:225.13989258" />
  <path
     d="m 7290.0299,10550.056 h 718.1961 v 1485.923 h 15.76 q 96.8101,-200.375 207.1285,-387.241 l 659.6598,-1098.682 h 866.7883 l -999.621,1431.89 1044.6491,1906.935 h -828.5149 l -722.6988,-1422.885 -243.151,326.453 v 1094.18 h -718.1961 z"
     id="path56"
     inkscape:connector-curvature="0"
     style="stroke-width:225.13989258" />
  <path
     d="m 11184.95,13938.411 c -675.42,0 -1154.968,-466.04 -1154.968,-1247.275 0,-781.235 506.565,-1274.292 1181.985,-1274.292 675.419,0 1125.699,499.811 1125.699,1242.772 0,920.823 -603.375,1278.795 -1163.973,1278.795 v 0 z m -486.302,-2814.248 a 339.96124,339.96124 0 0 1 0,-675.42 339.96124,339.96124 0 0 1 0,675.42 z m 513.319,2289.672 c 267.916,0 416.508,-326.453 416.508,-738.458 0,-351.219 -114.821,-733.957 -416.508,-733.957 -301.688,0 -450.28,382.738 -450.28,733.957 0,416.508 144.089,738.458 430.017,738.458 v 0 z m 472.793,-2289.672 a 339.96124,339.96124 0 0 1 0,-675.42 321.95004,321.95004 0 0 1 321.95,337.71 326.45285,326.45285 0 0 1 -321.95,342.212 v 0 z"
     id="path58"
     inkscape:connector-curvature="0"
     style="stroke-width:225.13989258" />
  <path
     d="m 12936.538,10396.961 h 722.699 v 3491.919 h -722.699 z"
     id="path60"
     inkscape:connector-curvature="0"
     style="stroke-width:225.13989258" />
  <path
     d="m 14363.925,12229.599 c 0,-292.682 0,-540.336 -20.262,-763.224 h 623.637 l 33.771,317.447 h 15.76 a 828.51478,828.51478 0 0 1 704.688,-366.978 c 486.302,0 801.498,342.213 801.498,1001.873 v 1472.414 h -713.694 v -1398.118 c 0,-276.922 -94.559,-486.302 -342.212,-486.302 a 362.47523,362.47523 0 0 0 -342.213,263.413 576.35813,576.35813 0 0 0 -29.268,198.124 v 1422.883 h -731.705 z"
     id="path62"
     inkscape:connector-curvature="0"
     style="stroke-width:225.13989258" />
</svg>
